<?xml version="1.0" encoding="UTF-8" standalone="no"?>
<!DOCTYPE svg PUBLIC "-//W3C//DTD SVG 1.1//EN"
 "http://www.w3.org/Graphics/SVG/1.1/DTD/svg11.dtd">
<!-- Generated by graphviz version 2.47.0 (20210316.0004)
 -->
<!-- Title: dependencies Pages: 1 -->
<svg width="619pt" height="211pt"
 viewBox="0.00 0.00 619.00 211.00" xmlns="http://www.w3.org/2000/svg" xmlns:xlink="http://www.w3.org/1999/xlink">
<g id="graph0" class="graph" transform="scale(1 1) rotate(0) translate(4 207)">
<title>dependencies</title>
<polygon fill="white" stroke="transparent" points="-4,4 -4,-207 615,-207 615,4 -4,4"/>
<text text-anchor="start" x="284.51" y="-42.4" font-family="Times-12" font-weight="bold" font-size="14.00">Legend</text>
<polygon fill="#ffffb3" stroke="transparent" points="71.5,-10 71.5,-30 91.5,-30 91.5,-10 71.5,-10"/>
<text text-anchor="start" x="95.13" y="-15.4" font-family="Times-12" font-size="14.00"> &#160;Declarations</text>
<polygon fill="#8dd3c7" stroke="transparent" points="184.5,-10 184.5,-30 204.5,-30 204.5,-10 184.5,-10"/>
<text text-anchor="start" x="208.23" y="-15.4" font-family="Times-12" font-size="14.00"> &#160;Module</text>
<polygon fill="#80b1d3" stroke="transparent" points="270.5,-10 270.5,-30 290.5,-30 290.5,-10 270.5,-10"/>
<text text-anchor="start" x="294.28" y="-15.4" font-family="Times-12" font-size="14.00"> &#160;Bootstrap</text>
<polygon fill="#fdb462" stroke="transparent" points="367.5,-10 367.5,-30 387.5,-30 387.5,-10 367.5,-10"/>
<text text-anchor="start" x="391.17" y="-15.4" font-family="Times-12" font-size="14.00"> &#160;Providers</text>
<polygon fill="#fb8072" stroke="transparent" points="463.5,-10 463.5,-30 483.5,-30 483.5,-10 463.5,-10"/>
<text text-anchor="start" x="487.23" y="-15.4" font-family="Times-12" font-size="14.00"> &#160;Exports</text>
<g id="clust1" class="cluster">
<title>cluster_AppModule</title>
<polygon fill="none" stroke="black" stroke-dasharray="1,5" points="8,-70 8,-195 603,-195 603,-70 8,-70"/>
</g>
<g id="clust3" class="cluster">
<title>cluster_AppModule_imports</title>
<polygon fill="none" stroke="black" points="154,-78 154,-130 595,-130 595,-78 154,-78"/>
</g>
<g id="clust6" class="cluster">
<title>cluster_AppModule_providers</title>
<polygon fill="none" stroke="black" points="16,-78 16,-130 146,-130 146,-78 16,-78"/>
</g>
<!-- AuthModule -->
<g id="node1" class="node">
<title>AuthModule</title>
<polygon fill="#8dd3c7" stroke="black" points="586.55,-122 583.55,-126 562.55,-126 559.55,-122 499.45,-122 499.45,-86 586.55,-86 586.55,-122"/>
<text text-anchor="middle" x="543" y="-99.8" font-family="Times,serif" font-size="14.00">AuthModule</text>
</g>
<!-- AppModule -->
<g id="node5" class="node">
<title>AppModule</title>
<polygon fill="#8dd3c7" stroke="black" points="357.66,-187 354.66,-191 333.66,-191 330.66,-187 274.34,-187 274.34,-151 357.66,-151 357.66,-187"/>
<text text-anchor="middle" x="316" y="-164.8" font-family="Times,serif" font-size="14.00">AppModule</text>
</g>
<!-- AuthModule&#45;&gt;AppModule -->
<g id="edge1" class="edge">
<title>AuthModule&#45;&gt;AppModule</title>
<path fill="none" stroke="black" d="M543,-122.28C543,-143.32 543,-175 543,-175 543,-175 367.9,-175 367.9,-175"/>
<polygon fill="black" stroke="black" points="367.9,-171.5 357.9,-175 367.9,-178.5 367.9,-171.5"/>
</g>
<!-- PrismaModule -->
<g id="node2" class="node">
<title>PrismaModule</title>
<polygon fill="#8dd3c7" stroke="black" points="481.43,-122 478.43,-126 457.43,-126 454.43,-122 382.57,-122 382.57,-86 481.43,-86 481.43,-122"/>
<text text-anchor="middle" x="432" y="-99.8" font-family="Times,serif" font-size="14.00">PrismaModule</text>
</g>
<!-- PrismaModule&#45;&gt;AppModule -->
<g id="edge2" class="edge">
<title>PrismaModule&#45;&gt;AppModule</title>
<path fill="none" stroke="black" d="M432,-122.02C432,-139.37 432,-163 432,-163 432,-163 367.88,-163 367.88,-163"/>
<polygon fill="black" stroke="black" points="367.88,-159.5 357.88,-163 367.88,-166.5 367.88,-159.5"/>
</g>
<!-- SchoolModule -->
<g id="node3" class="node">
<title>SchoolModule</title>
<polygon fill="#8dd3c7" stroke="black" points="365.44,-122 362.44,-126 341.44,-126 338.44,-122 266.56,-122 266.56,-86 365.44,-86 365.44,-122"/>
<text text-anchor="middle" x="316" y="-99.8" font-family="Times,serif" font-size="14.00">SchoolModule</text>
</g>
<!-- SchoolModule&#45;&gt;AppModule -->
<g id="edge3" class="edge">
<title>SchoolModule&#45;&gt;AppModule</title>
<path fill="none" stroke="black" d="M316,-122.11C316,-122.11 316,-140.99 316,-140.99"/>
<polygon fill="black" stroke="black" points="312.5,-140.99 316,-150.99 319.5,-140.99 312.5,-140.99"/>
</g>
<!-- TaskModule -->
<g id="node4" class="node">
<title>TaskModule</title>
<polygon fill="#8dd3c7" stroke="black" points="248.26,-122 245.26,-126 224.26,-126 221.26,-122 161.74,-122 161.74,-86 248.26,-86 248.26,-122"/>
<text text-anchor="middle" x="205" y="-99.8" font-family="Times,serif" font-size="14.00">TaskModule</text>
</g>
<!-- TaskModule&#45;&gt;AppModule -->
<g id="edge4" class="edge">
<title>TaskModule&#45;&gt;AppModule</title>
<path fill="none" stroke="black" d="M205,-122.02C205,-139.37 205,-163 205,-163 205,-163 264.04,-163 264.04,-163"/>
<polygon fill="black" stroke="black" points="264.04,-166.5 274.04,-163 264.04,-159.5 264.04,-166.5"/>
</g>
<!-- AppService -->
<g id="node6" class="node">
<title>AppService</title>
<ellipse fill="#fdb462" stroke="black" cx="81" cy="-104" rx="56.74" ry="18"/>
<text text-anchor="middle" x="81" y="-99.8" font-family="Times,serif" font-size="14.00">AppService</text>
</g>
<!-- AppService&#45;&gt;AppModule -->
<g id="edge5" class="edge">
<title>AppService&#45;&gt;AppModule</title>
<path fill="none" stroke="black" d="M81,-122.28C81,-143.32 81,-175 81,-175 81,-175 264.26,-175 264.26,-175"/>
<polygon fill="black" stroke="black" points="264.26,-178.5 274.26,-175 264.26,-171.5 264.26,-178.5"/>
</g>
</g>
</svg>
